<svg width="17" height="17" viewBox="0 0 17 17" fill="none" xmlns="http://www.w3.org/2000/svg">
<g id="gas" clip-path="url(#clip0_67_1167)">
<path id="Vector" d="M13.6798 5.32L13.6898 5.31L11.2065 2.83333L10.4998 3.54L11.9065 4.94667C11.5913 5.06643 11.32 5.27907 11.1283 5.55644C10.9367 5.83382 10.8337 6.16285 10.8332 6.5C10.8332 7.42 11.5798 8.16667 12.4998 8.16667C12.7365 8.16667 12.9632 8.11667 13.1665 8.02667V12.8333C13.1665 13.2 12.8665 13.5 12.4998 13.5C12.1332 13.5 11.8332 13.2 11.8332 12.8333V9.83333C11.8332 9.09667 11.2365 8.5 10.4998 8.5H9.83317V3.83333C9.83317 3.09667 9.2365 2.5 8.49984 2.5H4.49984C3.76317 2.5 3.1665 3.09667 3.1665 3.83333V14.5H9.83317V9.5H10.8332V12.8333C10.8332 13.7533 11.5798 14.5 12.4998 14.5C13.4198 14.5 14.1665 13.7533 14.1665 12.8333V6.5C14.1665 6.04 13.9798 5.62333 13.6798 5.32ZM8.49984 7.16667H4.49984V3.83333H8.49984V7.16667ZM12.4998 7.16667C12.1332 7.16667 11.8332 6.86667 11.8332 6.5C11.8332 6.13333 12.1332 5.83333 12.4998 5.83333C12.8665 5.83333 13.1665 6.13333 13.1665 6.5C13.1665 6.86667 12.8665 7.16667 12.4998 7.16667Z" fill="white" fill-opacity="0.76"/>
</g>
<defs>
<clipPath id="clip0_67_1167">
<rect width="16" height="16" fill="white" transform="translate(0.5 0.5)"/>
</clipPath>
</defs>
</svg>
