<svg width="192" height="192" viewBox="0 0 192 192" fill="none" xmlns="http://www.w3.org/2000/svg">
<rect width="192" height="192" rx="96" fill="#19233C"/>
<path fill-rule="evenodd" clip-rule="evenodd" d="M91.4376 106.127V117.151C91.4376 117.731 91.9066 118.2 92.4882 118.2C102.296 118.2 112.322 117.459 121.379 113.369C131.482 108.807 138.133 100.889 141.906 90.5317L142.867 87.8926L143.874 90.516C147.878 100.941 147.001 112.4 141.324 122.038C136.876 129.591 130.041 135.091 122.128 138.729C112.937 142.955 102.551 144.591 92.4882 144.591C91.9066 144.591 91.4376 145.061 91.4376 145.641V155.981L59.6606 129.416L91.4376 106.127Z" fill="#689BE4"/>
<mask id="mask0_249_3" style="mask-type:luminance" maskUnits="userSpaceOnUse" x="43" y="30" width="107" height="131">
<path d="M43.2 30.7202H149.664V160.32H43.2V30.7202Z" fill="white"/>
</mask>
<g mask="url(#mask0_249_3)">
<path fill-rule="evenodd" clip-rule="evenodd" d="M140.415 121.51C132.167 135.514 114.697 143.546 92.4849 143.546C91.3233 143.546 90.3837 144.485 90.3837 145.645V153.738L61.3599 129.475L90.3837 108.202V117.155C90.3837 118.315 91.3233 119.254 92.4849 119.254C101.595 119.254 112.203 118.668 121.809 114.33C131.791 109.824 138.863 101.95 142.889 90.8951C146.772 101.006 145.942 112.127 140.415 121.51ZM144.322 84.0675C143.903 83.3171 143.067 82.8934 142.213 83.0059C141.364 83.1154 140.661 83.7314 140.45 84.5647C133.783 110.487 113.802 114.772 94.5862 115.039V104.059C94.5862 103.27 94.1391 102.546 93.4324 102.189C92.7273 101.83 91.8799 101.902 91.242 102.368L56.7087 127.673C56.1896 128.053 55.8738 128.652 55.8535 129.298C55.8316 129.944 56.1114 130.56 56.6039 130.974L91.1341 159.841C91.5203 160.165 92.0018 160.332 92.4849 160.332C92.7867 160.332 93.0884 160.267 93.373 160.135C94.1141 159.788 94.5862 159.047 94.5862 158.233V147.723C106.189 147.478 116.407 145.186 124.987 140.903C133.217 136.796 139.803 130.827 144.038 123.64C151.217 111.45 151.325 96.6563 144.322 84.0675ZM49.939 100.232C53.9664 89.1768 61.0394 81.3049 71.022 76.7975C80.6262 72.4589 91.2342 71.8742 100.346 71.8742C101.504 71.8742 102.446 72.8138 102.446 73.9739V82.9231L131.469 61.654L102.446 37.3878V45.4817C102.446 46.6418 101.504 47.5799 100.346 47.5799C78.1341 47.5799 60.6642 55.6128 52.4139 69.6182C46.8871 79.002 46.057 90.1212 49.939 100.232ZM98.2431 76.0893V87.0662C98.2431 87.8557 98.6902 88.5812 99.3954 88.9376C100.104 89.2972 100.949 89.2269 101.587 88.7594L136.119 63.4535C136.64 63.072 136.956 62.4748 136.976 61.8291C136.998 61.1834 136.718 60.5674 136.225 60.1531L101.695 31.2857C101.068 30.7619 100.196 30.6478 99.4563 30.9918C98.7153 31.3388 98.2431 32.0783 98.2431 32.8945V43.4024C86.6424 43.6509 76.4221 45.9398 67.8435 50.2221C59.6136 54.3293 53.0268 60.3 48.7914 67.4856C41.6121 79.6789 41.5042 94.4722 48.5084 107.059C48.8821 107.73 49.5903 108.141 50.3455 108.141C50.4346 108.141 50.5237 108.132 50.6144 108.123C51.4665 108.012 52.1684 107.396 52.3811 106.562C59.0445 80.642 79.0253 76.3566 98.2431 76.0893Z" fill="#528CE0"/>
</g>
</svg>
