<svg width="256" height="256" viewBox="0 0 256 256" fill="none" xmlns="http://www.w3.org/2000/svg">
<rect width="256" height="256" rx="128" fill="#19233C"/>
<path fill-rule="evenodd" clip-rule="evenodd" d="M121.917 141.503V156.201C121.917 156.975 122.542 157.6 123.318 157.6C136.394 157.6 149.763 156.612 161.839 151.159C175.309 145.076 184.177 134.52 189.207 120.709L190.489 117.19L191.832 120.688C197.171 134.588 196.001 149.866 188.432 162.718C182.501 172.789 173.388 180.122 162.837 184.973C150.582 190.608 136.734 192.788 123.318 192.788C122.542 192.788 121.917 193.416 121.917 194.189V207.974L79.5476 172.555L121.917 141.503Z" fill="#689BE4"/>
<mask id="mask0_249_19" style="mask-type:luminance" maskUnits="userSpaceOnUse" x="57" y="40" width="143" height="174">
<path d="M57.6001 40.9604H199.552V213.76H57.6001V40.9604Z" fill="white"/>
</mask>
<g mask="url(#mask0_249_19)">
<path fill-rule="evenodd" clip-rule="evenodd" d="M187.221 162.014C176.222 180.686 152.929 191.394 123.313 191.394C121.764 191.394 120.512 192.647 120.512 194.194V204.984L81.8132 172.633L120.512 144.27V156.206C120.512 157.753 121.764 159.006 123.313 159.006C135.46 159.006 149.604 158.224 162.412 152.439C175.722 146.432 185.151 135.934 190.518 121.193C195.696 134.674 194.59 149.502 187.221 162.014ZM192.43 112.09C191.871 111.089 190.756 110.524 189.618 110.675C188.486 110.82 187.548 111.642 187.266 112.753C178.378 147.315 151.737 153.029 126.115 153.386V138.746C126.115 137.693 125.519 136.728 124.577 136.252C123.636 135.773 122.507 135.869 121.656 136.49L75.6116 170.231C74.9195 170.738 74.4984 171.536 74.4713 172.397C74.4421 173.258 74.8153 174.079 75.4719 174.632L121.512 213.122C122.027 213.553 122.669 213.776 123.313 213.776C123.716 213.776 124.118 213.689 124.497 213.514C125.485 213.051 126.115 212.063 126.115 210.977V196.964C141.585 196.637 155.21 193.581 166.65 187.871C177.623 182.395 186.403 174.436 192.051 164.853C201.623 148.6 201.767 128.875 192.43 112.09ZM66.5853 133.643C71.9552 118.902 81.3859 108.407 94.696 102.397C107.502 96.6119 121.646 95.8323 133.795 95.8323C135.339 95.8323 136.594 97.0851 136.594 98.6319V110.564L175.293 82.2053L136.594 49.8504V60.6423C136.594 62.1891 135.339 63.4398 133.795 63.4398C104.179 63.4398 80.8856 74.1505 69.8852 92.8242C62.5162 105.336 61.4093 120.162 66.5853 133.643ZM130.991 101.452V116.088C130.991 117.141 131.587 118.108 132.527 118.584C133.471 119.063 134.599 118.969 135.45 118.346L181.492 84.6047C182.186 84.096 182.607 83.2997 182.634 82.4388C182.664 81.5779 182.29 80.7565 181.634 80.2041L135.594 41.7142C134.758 41.0159 133.594 40.8637 132.608 41.3223C131.62 41.7851 130.991 42.7711 130.991 43.8593V57.8698C115.523 58.2013 101.896 61.2531 90.458 66.9628C79.4847 72.439 70.7024 80.4001 65.0552 89.9808C55.4828 106.239 55.3389 125.963 64.6779 142.746C65.1761 143.64 66.1204 144.189 67.1273 144.189C67.2461 144.189 67.3649 144.176 67.4858 144.164C68.6219 144.016 69.5579 143.194 69.8414 142.083C78.726 107.523 105.367 101.809 130.991 101.452Z" fill="#528CE0"/>
</g>
</svg>
