<svg width="512" height="512" viewBox="0 0 512 512" fill="none" xmlns="http://www.w3.org/2000/svg">
<rect width="512" height="512" rx="256" fill="#19233C"/>
<path fill-rule="evenodd" clip-rule="evenodd" d="M243.834 283.006V312.402C243.834 313.949 245.084 315.2 246.635 315.2C272.788 315.2 299.525 313.224 323.678 302.317C350.619 290.151 368.354 269.039 378.415 241.418L380.979 234.38L383.664 241.376C394.341 269.176 392.002 299.732 376.864 325.435C365.002 345.577 346.775 360.244 325.675 369.945C301.164 381.215 273.468 385.576 246.635 385.576C245.084 385.576 243.834 386.831 243.834 388.377V415.948L159.095 345.11L243.834 283.006Z" fill="#689BE4"/>
<mask id="mask0_249_11" style="mask-type:luminance" maskUnits="userSpaceOnUse" x="115" y="81" width="285" height="347">
<path d="M115.2 81.9209H399.104V427.521H115.2V81.9209Z" fill="white"/>
</mask>
<g mask="url(#mask0_249_11)">
<path fill-rule="evenodd" clip-rule="evenodd" d="M374.441 324.028C352.444 361.371 305.858 382.788 246.627 382.788C243.529 382.788 241.023 385.294 241.023 388.387V409.967L163.626 345.266L241.023 288.54V312.412C241.023 315.506 243.529 318.012 246.627 318.012C270.92 318.012 299.208 316.448 324.824 304.879C351.444 292.863 370.301 271.867 381.037 242.387C391.393 269.349 389.179 299.004 374.441 324.028ZM384.86 224.18C383.743 222.179 381.512 221.049 379.236 221.349C376.972 221.641 375.096 223.284 374.533 225.506C356.755 294.631 303.473 306.059 252.23 306.771V277.491C252.23 275.386 251.038 273.456 249.153 272.505C247.273 271.546 245.013 271.738 243.312 272.98L151.223 340.463C149.839 341.476 148.997 343.073 148.943 344.794C148.884 346.516 149.631 348.159 150.944 349.264L243.024 426.244C244.054 427.107 245.338 427.553 246.627 427.553C247.431 427.553 248.236 427.378 248.995 427.027C250.971 426.102 252.23 424.126 252.23 421.953V393.928C283.169 393.274 310.419 387.162 333.3 375.742C355.246 364.79 372.807 348.872 384.101 329.706C403.246 297.199 403.534 257.75 384.86 224.18ZM133.171 267.285C143.91 237.805 162.772 216.813 189.392 204.793C215.003 193.224 243.291 191.665 267.589 191.665C270.679 191.665 273.188 194.17 273.188 197.264V221.128L350.585 164.411L273.188 99.7008V121.285C273.188 124.378 270.679 126.88 267.589 126.88C208.358 126.88 161.771 148.301 139.77 185.648C125.032 210.672 122.819 240.323 133.171 267.285ZM261.982 202.905V232.177C261.982 234.282 263.174 236.216 265.054 237.167C266.943 238.126 269.198 237.938 270.899 236.692L362.984 169.209C364.373 168.192 365.215 166.599 365.269 164.878C365.327 163.156 364.581 161.513 363.268 160.408L271.187 83.4285C269.515 82.0318 267.189 81.7274 265.217 82.6447C263.241 83.5702 261.982 85.5422 261.982 87.7186V115.74C231.046 116.403 203.792 122.506 180.916 133.926C158.969 144.878 141.405 160.8 130.11 179.962C110.966 212.477 110.678 251.926 129.356 285.492C130.352 287.281 132.241 288.377 134.255 288.377C134.492 288.377 134.73 288.352 134.972 288.327C137.244 288.031 139.116 286.388 139.683 284.166C157.452 215.045 210.734 203.618 261.982 202.905Z" fill="#528CE0"/>
</g>
</svg>
