<svg width="20" height="20" viewBox="0 0 20 20" fill="none" xmlns="http://www.w3.org/2000/svg">
<g id="upload-image 1">
<path id="Vector" d="M15.8333 10.8333C15.6123 10.8333 15.4003 10.9211 15.244 11.0774C15.0878 11.2337 15 11.4456 15 11.6667V11.9833L13.7666 10.75C13.3311 10.3179 12.7426 10.0755 12.1291 10.0755C11.5157 10.0755 10.9271 10.3179 10.4916 10.75L9.90829 11.3333L7.84163 9.26665C7.40006 8.84632 6.81376 8.61189 6.20413 8.61189C5.59449 8.61189 5.00819 8.84632 4.56663 9.26665L3.33329 10.5V5.83332C3.33329 5.61231 3.42109 5.40035 3.57737 5.24407C3.73365 5.08779 3.94561 4.99999 4.16663 4.99999H9.99996C10.221 4.99999 10.4329 4.91219 10.5892 4.75591C10.7455 4.59963 10.8333 4.38767 10.8333 4.16666C10.8333 3.94564 10.7455 3.73368 10.5892 3.5774C10.4329 3.42112 10.221 3.33332 9.99996 3.33332H4.16663C3.50358 3.33332 2.8677 3.59671 2.39886 4.06556C1.93002 4.5344 1.66663 5.17028 1.66663 5.83332V15.8333C1.66663 16.4964 1.93002 17.1322 2.39886 17.6011C2.8677 18.0699 3.50358 18.3333 4.16663 18.3333H14.1666C14.8297 18.3333 15.4656 18.0699 15.9344 17.6011C16.4032 17.1322 16.6666 16.4964 16.6666 15.8333V11.6667C16.6666 11.4456 16.5788 11.2337 16.4225 11.0774C16.2663 10.9211 16.0543 10.8333 15.8333 10.8333ZM4.16663 16.6667C3.94561 16.6667 3.73365 16.5789 3.57737 16.4226C3.42109 16.2663 3.33329 16.0543 3.33329 15.8333V12.8583L5.74996 10.4417C5.87239 10.325 6.03501 10.2599 6.20413 10.2599C6.37324 10.2599 6.53587 10.325 6.65829 10.4417L9.29996 13.0833L12.8833 16.6667H4.16663ZM15 15.8333C14.9988 15.9928 14.9462 16.1477 14.85 16.275L11.0916 12.5L11.675 11.9167C11.7347 11.8557 11.806 11.8072 11.8847 11.7742C11.9634 11.7411 12.0479 11.7241 12.1333 11.7241C12.2187 11.7241 12.3032 11.7411 12.3819 11.7742C12.4606 11.8072 12.5319 11.8557 12.5916 11.9167L15 14.3417V15.8333ZM18.925 3.57499L16.425 1.07499C16.3457 0.999123 16.2522 0.939652 16.15 0.89999C15.9471 0.816642 15.7195 0.816642 15.5166 0.89999C15.4143 0.939652 15.3209 0.999123 15.2416 1.07499L12.7416 3.57499C12.6639 3.65269 12.6023 3.74493 12.5602 3.84645C12.5182 3.94797 12.4965 4.05677 12.4965 4.16666C12.4965 4.38857 12.5847 4.6014 12.7416 4.75832C12.8985 4.91524 13.1114 5.0034 13.3333 5.0034C13.5552 5.0034 13.768 4.91524 13.925 4.75832L15 3.67499V8.33332C15 8.55434 15.0878 8.7663 15.244 8.92258C15.4003 9.07886 15.6123 9.16666 15.8333 9.16666C16.0543 9.16666 16.2663 9.07886 16.4225 8.92258C16.5788 8.7663 16.6666 8.55434 16.6666 8.33332V3.67499L17.7416 4.75832C17.8191 4.83643 17.9113 4.89842 18.0128 4.94073C18.1144 4.98304 18.2233 5.00482 18.3333 5.00482C18.4433 5.00482 18.5522 4.98304 18.6538 4.94073C18.7553 4.89842 18.8475 4.83643 18.925 4.75832C19.0031 4.68085 19.0651 4.58869 19.1074 4.48714C19.1497 4.38559 19.1715 4.27667 19.1715 4.16666C19.1715 4.05665 19.1497 3.94772 19.1074 3.84618C19.0651 3.74463 19.0031 3.65246 18.925 3.57499Z" fill="white" fill-opacity="0.76"/>
</g>
</svg>
